<svg clip-rule="evenodd" fill-rule="evenodd" stroke-linejoin="round" stroke-miterlimit="2" viewBox="0 0 4267 4267" xmlns="http://www.w3.org/2000/svg"><path d="m3445.83 570.833h-1797.16l-827.837 842.477v2282.52h2625v-3125z" fill="#f7df1e"/><path d="m644.488 1035.39c-73.856 74.127-115.321 174.47-115.321 279.073v2256.66c0 218.45 177.22 395.54 395.833 395.54h2416.67c218.612 0 395.833-177.09 395.833-395.54v-2875.59c0-218.451-177.221-395.54-395.833-395.54h-1800c-105.284 0-206.229 41.912-280.512 116.467l-616.667 618.928zm280.512 408.789v2126.94h2416.67v-2875.59h-1602.42l-.066 425.814c0 178.248-144.822 322.963-323.202 322.963l-490.982-.133z" fill="#a48f53"/><path d="m2448.95 2920.1c49.344 83.886 118.427 143.1 231.92 143.1 98.689 0 162.837-49.345 162.837-118.428 0-78.951-64.148-108.558-172.706-157.903l-59.214-24.672c-172.706-74.017-286.199-162.838-286.199-355.282 0-177.641 133.231-315.806 345.413-315.806 152.969 0 261.527 54.279 335.544 192.444l-182.575 118.428c-39.476-74.017-83.886-103.624-152.969-103.624s-113.493 44.41-113.493 103.624c0 69.082 44.41 98.689 148.034 143.099l59.214 24.673c202.313 88.82 315.806 172.706 315.806 375.019 0 212.183-167.772 330.61-394.758 330.61-222.051 0-365.15-103.624-434.233-241.789zm-838.86 19.738c39.476 64.148 69.082 123.362 152.968 123.362 78.952 0 128.297-29.607 128.297-148.034v-819.122h236.854v809.253c0 246.723-143.099 355.281-355.282 355.281-192.444 0-301.002-98.689-355.282-217.116z" fill-rule="nonzero"/></svg>